<?xml version="1.0" encoding="UTF-8" standalone="no"?>
<!-- Created with Inkscape (http://www.inkscape.org/) -->

<svg
   xmlns:dc="http://purl.org/dc/elements/1.1/"
   xmlns:cc="http://creativecommons.org/ns#"
   xmlns:rdf="http://www.w3.org/1999/02/22-rdf-syntax-ns#"
   xmlns:svg="http://www.w3.org/2000/svg"
   xmlns="http://www.w3.org/2000/svg"
   xmlns:sodipodi="http://sodipodi.sourceforge.net/DTD/sodipodi-0.dtd"
   xmlns:inkscape="http://www.inkscape.org/namespaces/inkscape"
   width="135.96773mm"
   height="135.96773mm"
   viewBox="0 0 135.96773 135.96773"
   version="1.1"
   id="svg8"
   inkscape:version="0.92.2 5c3e80d, 2017-08-06"
   sodipodi:docname="logo.svg"
   inkscape:export-filename="/home/dsiw/projects/location_history/src/assets/logo.png"
   inkscape:export-xdpi="358.67001"
   inkscape:export-ydpi="358.67001">
  <defs
     id="defs2" />
  <sodipodi:namedview
     id="base"
     pagecolor="#ffffff"
     bordercolor="#666666"
     borderopacity="1.0"
     inkscape:pageopacity="0.0"
     inkscape:pageshadow="2"
     inkscape:zoom="0.58524009"
     inkscape:cx="264.82292"
     inkscape:cy="202.46599"
     inkscape:document-units="mm"
     inkscape:current-layer="layer1"
     showgrid="false"
     inkscape:snap-intersection-paths="true"
     inkscape:snap-object-midpoints="true"
     showborder="true"
     fit-margin-top="0"
     fit-margin-left="0"
     fit-margin-right="0"
     fit-margin-bottom="0"
     inkscape:window-width="1366"
     inkscape:window-height="768"
     inkscape:window-x="312"
     inkscape:window-y="1080"
     inkscape:window-maximized="0"
     inkscape:pagecheckerboard="true" />
  <metadata
     id="metadata5">
    <rdf:RDF>
      <cc:Work
         rdf:about="">
        <dc:format>image/svg+xml</dc:format>
        <dc:type
           rdf:resource="http://purl.org/dc/dcmitype/StillImage" />
        <dc:title></dc:title>
      </cc:Work>
    </rdf:RDF>
  </metadata>
  <g
     inkscape:label="Layer 1"
     inkscape:groupmode="layer"
     id="layer1"
     transform="translate(-94.766305,100.89224)">
    <path
       style="color:#000000;font-style:normal;font-variant:normal;font-weight:normal;font-stretch:normal;font-size:medium;line-height:normal;font-family:sans-serif;font-variant-ligatures:normal;font-variant-position:normal;font-variant-caps:normal;font-variant-numeric:normal;font-variant-alternates:normal;font-feature-settings:normal;text-indent:0;text-align:start;text-decoration:none;text-decoration-line:none;text-decoration-style:solid;text-decoration-color:#000000;letter-spacing:normal;word-spacing:normal;text-transform:none;writing-mode:lr-tb;direction:ltr;text-orientation:mixed;dominant-baseline:auto;baseline-shift:baseline;text-anchor:start;white-space:normal;shape-padding:0;clip-rule:nonzero;display:inline;overflow:visible;visibility:visible;opacity:1;isolation:auto;mix-blend-mode:normal;color-interpolation:sRGB;color-interpolation-filters:linearRGB;solid-color:#000000;solid-opacity:1;vector-effect:none;fill:#f9fcfe;fill-opacity:1;fill-rule:evenodd;stroke:none;stroke-width:10.16499901;stroke-linecap:round;stroke-linejoin:round;stroke-miterlimit:4;stroke-dasharray:none;stroke-dashoffset:0;stroke-opacity:1;color-rendering:auto;image-rendering:auto;shape-rendering:auto;text-rendering:auto;enable-background:accumulate"
       d="m 226.80449,-69.963883 a 9.010289,9.010289 0 0 1 -0.7302,0.44855 9.010289,9.010289 0 0 0 0.7302,-0.44855 z m -117.95095,0.0026 a 9.010289,9.010289 0 0 1 -0.70693,0.435115 9.010289,9.010289 0 0 0 0.70693,-0.435115 z m 58.9721,10e-4 a 9.010289,9.010289 0 0 1 -0.70226,0.432015 9.010289,9.010289 0 0 0 0.70226,-0.432015 z m 58.19595,0.475422 a 9.010289,9.010289 0 0 1 -0.70229,0.341067 9.010289,9.010289 0 0 0 0.70229,-0.341067 z m -117.9556,0.0047 a 9.010289,9.010289 0 0 1 -0.68316,0.331247 9.010289,9.010289 0 0 0 0.68316,-0.331247 z m 58.97365,0 a 9.010289,9.010289 0 0 1 -0.68006,0.329697 9.010289,9.010289 0 0 0 0.68006,-0.329697 z m 58.14634,0.395843 a 9.010289,9.010289 0 0 1 -0.66302,0.243395 9.010289,9.010289 0 0 0 0.66302,-0.243395 z m -117.95146,0.0021 a 9.010289,9.010289 0 0 1 -0.64854,0.237712 9.010289,9.010289 0 0 0 0.64854,-0.237712 z m 58.97314,0 a 9.010289,9.010289 0 0 1 -0.64699,0.237194 9.010289,9.010289 0 0 0 0.64699,-0.237194 z m 58.11221,0.308507 a 9.010289,9.010289 0 0 1 -0.62217,0.159681 9.010289,9.010289 0 0 0 0.62217,-0.159681 z m -58.9778,0.0016 a 9.010289,9.010289 0 0 1 -0.59788,0.15348 9.010289,9.010289 0 0 0 0.59788,-0.15348 z m -58.97417,5.19e-4 a 9.010289,9.010289 0 0 1 -0.60358,0.154511 9.010289,9.010289 0 0 0 0.60358,-0.154511 z m 117.05797,0.218591 a 9.010289,9.010289 0 0 1 -0.55965,0.08526 9.010289,9.010289 0 0 0 0.55965,-0.08526 z m -117.95404,0.0015 a 9.010289,9.010289 0 0 1 -0.54466,0.0832 9.010289,9.010289 0 0 0 0.54466,-0.0832 z m 58.97108,5.16e-4 a 9.010289,9.010289 0 0 1 -0.53692,0.08217 9.010289,9.010289 0 0 0 0.53692,-0.08217 z m 58.06623,0.126609 a 9.010289,9.010289 0 0 1 -0.7855,0.04082 9.010289,9.010289 0 0 0 0.7855,-0.04082 z m -117.94784,5.16e-4 a 9.010289,9.010289 0 0 1 -0.75396,0.03927 9.010289,9.010289 0 0 0 0.75396,-0.03927 z m 58.97314,0 a 9.010289,9.010289 0 0 1 -0.75396,0.03927 9.010289,9.010289 0 0 0 0.75396,-0.03927 z m -5.86735,0.778764 v 24.988654 c 1.52173,-0.797121 3.24993,-1.251064 5.08291,-1.251085 1.83298,2.1e-5 3.56167,0.453964 5.08339,1.251085 v -24.988654 c -1.52175,0.797144 -3.25041,1.25055 -5.08339,1.250568 -1.83287,-1.8e-5 -3.56124,-0.453514 -5.08291,-1.250568 z m 58.9747,0 v 24.988138 c 1.52141,-0.796676 3.24945,-1.250032 5.08185,-1.250053 1.83259,2.1e-5 3.5609,0.453782 5.08238,1.250569 v -24.988654 c -1.52154,0.796877 -3.24971,1.25055 -5.08238,1.250568 -1.83247,-1.8e-5 -3.56039,-0.453826 -5.08185,-1.250568 z m -117.94732,5.15e-4 V 1.828181 c 1.52148,-0.796787 3.24983,-1.250032 5.08238,-1.250053 1.83257,2.1e-5 3.56037,0.453266 5.08186,1.250053 v -69.472828 c -1.52144,0.796722 -3.2494,1.250035 -5.08186,1.250053 -1.83246,-1.8e-5 -3.56095,-0.453331 -5.08238,-1.250053 z M 162.75,-41.918503 a 9.010289,9.010289 0 0 0 -0.78446,0.04082 9.010289,9.010289 0 0 1 0.78446,-0.04082 z m 58.94316,0.0015 a 9.010289,9.010289 0 0 0 -0.75448,0.03927 9.010289,9.010289 0 0 1 0.75448,-0.03927 z m -1.1126,0.08268 a 9.010289,9.010289 0 0 0 -0.55602,0.08475 9.010289,9.010289 0 0 1 0.55602,-0.08475 z m -58.97882,5.18e-4 a 9.010289,9.010289 0 0 0 -0.5488,0.08371 9.010289,9.010289 0 0 1 0.5488,-0.08371 z m 58.13856,0.14831 a 9.010289,9.010289 0 0 0 -0.60719,0.155546 9.010289,9.010289 0 0 1 0.60719,-0.155546 z m -58.9783,0.001 a 9.010289,9.010289 0 0 0 -0.60512,0.155546 9.010289,9.010289 0 0 1 0.60512,-0.155546 z m -0.81494,0.225309 a 9.010289,9.010289 0 0 0 -0.66043,0.241845 9.010289,9.010289 0 0 1 0.66043,-0.241845 z m 58.96954,0.001 a 9.010289,9.010289 0 0 0 -0.65477,0.240295 9.010289,9.010289 0 0 1 0.65477,-0.240295 z m -59.76173,0.300239 a 9.010289,9.010289 0 0 0 -0.69972,0.338997 9.010289,9.010289 0 0 1 0.69972,-0.338997 z m 58.97314,0 a 9.010289,9.010289 0 0 0 -0.69919,0.338997 9.010289,9.010289 0 0 1 0.69919,-0.338997 z m -0.76171,0.375171 a 9.010289,9.010289 0 0 0 -0.72295,0.444418 9.010289,9.010289 0 0 1 0.72295,-0.444418 z m -58.97676,0.0016 a 9.010289,9.010289 0 0 0 -0.71882,0.442351 9.010289,9.010289 0 0 1 0.71882,-0.442351 z m 14.10922,2.790528 c 0.79682,1.521619 1.25013,3.249658 1.25005,5.082376 -2e-5,1.832351 -0.45291,3.560493 -1.24955,5.08186 h 39.47562 c -0.79652,-1.521301 -1.25002,-3.24911 -1.25005,-5.081341 -5e-5,-1.832692 0.45324,-3.561294 1.25005,-5.082895 z m -2.31719,0.0041 a 9.010289,9.010289 0 0 1 0.44132,0.717786 9.010289,9.010289 0 0 0 -0.44132,-0.717786 z m 0.47955,0.783931 a 9.010289,9.010289 0 0 1 0.33849,0.698148 9.010289,9.010289 0 0 0 -0.33849,-0.698148 z m 0.39844,0.831991 a 9.010289,9.010289 0 0 1 0.24339,0.663008 9.010289,9.010289 0 0 0 -0.24339,-0.663008 z m 0.31057,0.866097 a 9.010289,9.010289 0 0 1 0.16124,0.628386 9.010289,9.010289 0 0 0 -0.16124,-0.628386 z m 0.22016,0.889352 a 9.010289,9.010289 0 0 1 0.0884,0.579811 9.010289,9.010289 0 0 0 -0.0884,-0.579811 z m 0.12866,0.913641 a 9.010289,9.010289 0 0 1 0.0413,0.792715 9.010289,9.010289 0 0 0 -0.0413,-0.792715 z m 40.99439,0.793231 a 9.010289,9.010289 0 0 0 0.0408,0.785998 9.010289,9.010289 0 0 1 -0.0408,-0.785998 z m -41.01817,1.034045 a 9.010289,9.010289 0 0 1 -0.13486,0.824756 9.010289,9.010289 0 0 0 0.13486,-0.824756 z m -0.13486,0.824756 a 9.010289,9.010289 0 0 1 -0.20256,0.804088 9.010289,9.010289 0 0 0 0.20256,-0.804088 z m 41.23677,-0.717785 a 9.010289,9.010289 0 0 0 0.0858,0.559657 9.010289,9.010289 0 0 1 -0.0858,-0.559657 z m 0.1483,0.838708 a 9.010289,9.010289 0 0 0 0.15708,0.612883 9.010289,9.010289 0 0 1 -0.15708,-0.612883 z m 0.22685,0.822174 a 9.010289,9.010289 0 0 0 0.24289,0.66249 9.010289,9.010289 0 0 1 -0.24289,-0.66249 z m 0.29869,0.787548 a 9.010289,9.010289 0 0 0 0.34367,0.708483 9.010289,9.010289 0 0 1 -0.34367,-0.708483 z m -42.54934,0.183452 a 9.010289,9.010289 0 0 1 -0.25114,0.478522 9.010289,9.010289 0 0 0 0.25114,-0.478522 z m -0.25114,0.478522 a 9.010289,9.010289 0 0 1 -0.26355,0.476975 9.010289,9.010289 0 0 0 0.26355,-0.476975 z m 43.1741,0.09922 a 9.010289,9.010289 0 0 0 0.45011,0.731222 9.010289,9.010289 0 0 1 -0.45011,-0.731222 z m 12.96148,3.078367 a 9.010289,9.010289 0 0 1 -0.73173,0.449585 9.010289,9.010289 0 0 0 0.73173,-0.449585 z m -58.98038,0.0041 a 9.010289,9.010289 0 0 1 -0.70226,0.432014 9.010289,9.010289 0 0 0 0.70226,-0.432014 z m 58.19595,0.47594 a 9.010289,9.010289 0 0 1 -0.70229,0.341064 9.010289,9.010289 0 0 0 0.70229,-0.341064 z m -58.98195,0.0041 a 9.010289,9.010289 0 0 1 -0.68006,0.329697 9.010289,9.010289 0 0 0 0.68006,-0.329697 z m 58.14634,0.396359 a 9.010289,9.010289 0 0 1 -0.65474,0.240297 9.010289,9.010289 0 0 0 0.65474,-0.240297 z m -58.97832,0.0015 a 9.010289,9.010289 0 0 1 -0.64699,0.237196 9.010289,9.010289 0 0 0 0.64699,-0.237196 z m -0.86559,0.31006 a 9.010289,9.010289 0 0 1 -0.60563,0.155546 9.010289,9.010289 0 0 0 0.60563,-0.155546 z m 58.97264,5.16e-4 a 9.010289,9.010289 0 0 1 -0.60926,0.156062 9.010289,9.010289 0 0 0 0.60926,-0.156062 z m -0.89038,0.219107 a 9.010289,9.010289 0 0 1 -0.55914,0.08578 9.010289,9.010289 0 0 0 0.55914,-0.08578 z m -58.97573,5.18e-4 a 9.010289,9.010289 0 0 1 -0.55192,0.08423 9.010289,9.010289 0 0 0 0.55192,-0.08423 z m -0.9126,0.128157 a 9.010289,9.010289 0 0 1 -0.75552,0.03927 9.010289,9.010289 0 0 0 0.75552,-0.03927 z m 58.97417,0 a 9.010289,9.010289 0 0 1 -0.78653,0.04083 9.010289,9.010289 0 0 0 0.78653,-0.04083 z m -64.84308,0.778764 V 1.828631 c 1.52173,-0.797121 3.24993,-1.250548 5.08291,-1.250569 1.83298,2.1e-5 3.56167,0.453448 5.08339,1.250569 v -24.988655 c -1.52175,0.797169 -3.25038,1.250551 -5.08339,1.250569 -1.8329,-1.8e-5 -3.56121,-0.45349 -5.08291,-1.250569 z m 58.9747,5.16e-4 V 1.827599 c 1.52141,-0.796676 3.24945,-1.249516 5.08185,-1.249537 1.83259,2.1e-5 3.5609,0.453266 5.08238,1.250053 v -24.987623 c -1.52151,0.796835 -3.24977,1.250551 -5.08238,1.250572 -1.83247,-2.1e-5 -3.56039,-0.453827 -5.08185,-1.250572 z M 103.74636,2.568123 a 9.010289,9.010289 0 0 0 -0.75499,0.03927 9.010289,9.010289 0 0 1 0.75499,-0.03927 z m 58.97314,0 a 9.010289,9.010289 0 0 0 -0.75396,0.03927 9.010289,9.010289 0 0 1 0.75396,-0.03927 z m 58.97366,0 a 9.010289,9.010289 0 0 0 -0.75448,0.03927 9.010289,9.010289 0 0 1 0.75448,-0.03927 z m -119.05991,0.08268 a 9.010289,9.010289 0 0 0 -0.55604,0.08475 9.010289,9.010289 0 0 1 0.55604,-0.08475 z m 117.94835,0 a 9.010289,9.010289 0 0 0 -0.55809,0.08526 9.010289,9.010289 0 0 1 0.55809,-0.08526 z m -58.97986,5.16e-4 a 9.010289,9.010289 0 0 0 -0.5488,0.08372 9.010289,9.010289 0 0 1 0.5488,-0.08372 z m 58.14065,0.147794 a 9.010289,9.010289 0 0 0 -0.60928,0.156064 9.010289,9.010289 0 0 1 0.60928,-0.156064 z m -117.9494,5.18e-4 a 9.010289,9.010289 0 0 0 -0.6072,0.155546 9.010289,9.010289 0 0 1 0.6072,-0.155546 z m 58.96901,10e-4 a 9.010289,9.010289 0 0 0 -0.60512,0.155546 9.010289,9.010289 0 0 1 0.60512,-0.155546 z m -0.81494,0.225311 a 9.010289,9.010289 0 0 0 -0.66043,0.241845 9.010289,9.010289 0 0 1 0.66043,-0.241845 z m -58.97779,10e-4 a 9.010289,9.010289 0 0 0 -0.65474,0.240295 9.010289,9.010289 0 0 1 0.65474,-0.240295 z m 117.94733,0 a 9.010289,9.010289 0 0 0 -0.65477,0.240295 9.010289,9.010289 0 0 1 0.65477,-0.240295 z M 100.18068,3.327249 a 9.010289,9.010289 0 0 0 -0.69814,0.338479 9.010289,9.010289 0 0 1 0.69814,-0.338479 z m 58.97419,0 a 9.010289,9.010289 0 0 0 -0.69972,0.338998 9.010289,9.010289 0 0 1 0.69972,-0.338998 z m 58.97314,0 a 9.010289,9.010289 0 0 0 -0.69919,0.338998 9.010289,9.010289 0 0 1 0.69919,-0.338998 z M 217.3663,3.702421 A 9.010289,9.010289 0 0 0 216.64179,4.14787 9.010289,9.010289 0 0 1 217.3663,3.702421 Z M 99.41639,3.703921 A 9.010289,9.010289 0 0 0 98.6986,4.145235 9.010289,9.010289 0 0 1 99.41639,3.703921 Z m 58.97315,0 a 9.010289,9.010289 0 0 0 -0.71882,0.442349 9.010289,9.010289 0 0 1 0.71882,-0.442349 z m -44.86497,2.79001 c 0.79705,1.521767 1.25066,3.250443 1.25057,5.083411 -10e-6,1.832649 -0.45318,3.560828 -1.25005,5.082375 h 39.47666 c -0.79687,-1.521547 -1.25055,-3.249726 -1.25058,-5.082375 -5e-5,-1.832968 0.45405,-3.561644 1.25111,-5.083411 z m -2.31924,0.001 a 9.010289,9.010289 0 0 1 0.44907,0.729673 9.010289,9.010289 0 0 0 -0.44907,-0.729673 z m 0.47956,0.782381 a 9.010289,9.010289 0 0 1 0.34985,0.721921 9.010289,9.010289 0 0 0 -0.34985,-0.721921 z m 0.3974,0.827341 a 9.010289,9.010289 0 0 1 0.25217,0.688846 9.010289,9.010289 0 0 0 -0.25217,-0.688846 z m 0.31264,0.869715 a 9.010289,9.010289 0 0 1 0.16278,0.634068 9.010289,9.010289 0 0 0 -0.16278,-0.634068 z m 0.22169,0.896585 a 9.010289,9.010289 0 0 1 0.0879,0.576191 9.010289,9.010289 0 0 0 -0.0879,-0.576191 z m 0.12867,0.913122 a 9.010289,9.010289 0 0 1 0.0413,0.792716 9.010289,9.010289 0 0 1 -0.0429,0.856279 9.010289,9.010289 0 0 0 0.0434,-0.856279 9.010289,9.010289 0 0 0 -0.0419,-0.792716 z m 40.99441,0.792716 a 9.010289,9.010289 0 0 0 0.0408,0.784966 9.010289,9.010289 0 0 1 -0.0408,-0.784966 z m 0.0847,1.146186 a 9.010289,9.010289 0 0 0 0.0842,0.55242 9.010289,9.010289 0 0 1 -0.0842,-0.55242 z m -41.21712,0.643887 a 9.010289,9.010289 0 0 1 -0.22325,0.872815 9.010289,9.010289 0 0 0 0.22325,-0.872815 z m 41.36542,0.194302 a 9.010289,9.010289 0 0 0 0.15711,0.610817 9.010289,9.010289 0 0 1 -0.15711,-0.610817 z m 0.22429,0.813906 a 9.010289,9.010289 0 0 0 0.24495,0.668176 9.010289,9.010289 0 0 1 -0.24495,-0.668176 z m 0.30022,0.791165 a 9.010289,9.010289 0 0 0 0.34367,0.707967 9.010289,9.010289 0 0 1 -0.34367,-0.707967 z m 0.37674,0.76636 a 9.010289,9.010289 0 0 0 0.44596,0.724506 9.010289,9.010289 0 0 1 -0.44596,-0.724506 z"
       id="path962"
       inkscape:connector-curvature="0" />
    <g
       id="g1169"
       style="fill:#f9fcfe;fill-opacity:1"
       transform="translate(42.37232,13.194964)">
      <circle
         style="opacity:1;fill:#f9fcfe;fill-opacity:1;fill-rule:nonzero;stroke:none;stroke-width:0;stroke-linecap:round;stroke-linejoin:round;stroke-miterlimit:4;stroke-dasharray:none;stroke-dashoffset:77.10236359;stroke-opacity:1;paint-order:fill markers stroke"
         id="circle942"
         cx="179.35132"
         cy="-90.588631"
         r="9.0102892" />
      <circle
         r="9.0102892"
         cy="-90.588531"
         cx="120.37783"
         id="circle944"
         style="opacity:1;fill:#f9fcfe;fill-opacity:1;fill-rule:nonzero;stroke:none;stroke-width:0;stroke-linecap:round;stroke-linejoin:round;stroke-miterlimit:4;stroke-dasharray:none;stroke-dashoffset:77.10236359;stroke-opacity:1;paint-order:fill markers stroke" />
      <circle
         style="opacity:1;fill:#f9fcfe;fill-opacity:1;fill-rule:nonzero;stroke:none;stroke-width:0;stroke-linecap:round;stroke-linejoin:round;stroke-miterlimit:4;stroke-dasharray:none;stroke-dashoffset:77.10236359;stroke-opacity:1;paint-order:fill markers stroke"
         id="circle946"
         cx="61.404274"
         cy="-90.588531"
         r="9.0102892" />
      <circle
         r="9.0102892"
         cy="-1.6180499"
         cx="61.404274"
         id="circle948"
         style="opacity:1;fill:#f9fcfe;fill-opacity:1;fill-rule:nonzero;stroke:none;stroke-width:0;stroke-linecap:round;stroke-linejoin:round;stroke-miterlimit:4;stroke-dasharray:none;stroke-dashoffset:77.10236359;stroke-opacity:1;paint-order:fill markers stroke" />
      <circle
         style="opacity:1;fill:#f9fcfe;fill-opacity:1;fill-rule:nonzero;stroke:none;stroke-width:0;stroke-linecap:round;stroke-linejoin:round;stroke-miterlimit:4;stroke-dasharray:none;stroke-dashoffset:77.10236359;stroke-opacity:1;paint-order:fill markers stroke"
         id="circle950"
         cx="120.37783"
         cy="-1.61805"
         r="9.0102892" />
      <circle
         r="9.0102892"
         cy="-46.103291"
         cx="120.37783"
         id="circle952"
         style="opacity:1;fill:#f9fcfe;fill-opacity:1;fill-rule:nonzero;stroke:none;stroke-width:0;stroke-linecap:round;stroke-linejoin:round;stroke-miterlimit:4;stroke-dasharray:none;stroke-dashoffset:77.10236359;stroke-opacity:1;paint-order:fill markers stroke" />
      <circle
         style="opacity:1;fill:#f9fcfe;fill-opacity:1;fill-rule:nonzero;stroke:none;stroke-width:0;stroke-linecap:round;stroke-linejoin:round;stroke-miterlimit:4;stroke-dasharray:none;stroke-dashoffset:77.10236359;stroke-opacity:1;paint-order:fill markers stroke"
         id="circle954"
         cx="179.35139"
         cy="-1.61805"
         r="9.0102892" />
      <circle
         style="opacity:1;fill:#f9fcfe;fill-opacity:1;fill-rule:nonzero;stroke:none;stroke-width:0;stroke-linecap:round;stroke-linejoin:round;stroke-miterlimit:4;stroke-dasharray:none;stroke-dashoffset:77.10236359;stroke-opacity:1;paint-order:fill markers stroke"
         id="circle1027"
         cx="179.35143"
         cy="-46.103062"
         r="9.0102892" />
    </g>
  </g>
</svg>
